<svg id="Layer_1" data-name="Layer 1" xmlns="http://www.w3.org/2000/svg" xmlns:xlink="http://www.w3.org/1999/xlink" viewBox="0 0 584.56 521.88"><defs><style>.cls-1{fill:url(#linear-gradient);}.cls-2{fill:url(#linear-gradient-2);}.cls-3{fill:url(#linear-gradient-3);}.cls-4{fill:url(#linear-gradient-4);}.cls-5{fill:url(#linear-gradient-5);}.cls-6{fill:url(#linear-gradient-6);}.cls-7{fill:url(#linear-gradient-7);}.cls-8{fill:url(#linear-gradient-8);}.cls-9{fill:url(#linear-gradient-9);}.cls-10{fill:url(#linear-gradient-10);}.cls-11{fill:url(#linear-gradient-11);}.cls-12{fill:url(#linear-gradient-12);}.cls-13{fill:url(#linear-gradient-13);}.cls-14{fill:url(#linear-gradient-14);}.cls-15{fill:url(#linear-gradient-15);}</style><linearGradient id="linear-gradient" x1="894.88" y1="401.32" x2="1058.35" y2="564.78" gradientUnits="userSpaceOnUse"><stop offset="0" stop-color="#00bbfb"/><stop offset="0.07" stop-color="#009cdd"/><stop offset="0.17" stop-color="#0073b3"/><stop offset="0.28" stop-color="#004f90"/><stop offset="0.39" stop-color="#003373"/><stop offset="0.51" stop-color="#001c5d"/><stop offset="0.65" stop-color="#000c4d"/><stop offset="0.79" stop-color="#000344"/><stop offset="1" stop-color="#000041"/></linearGradient><linearGradient id="linear-gradient-2" x1="960.99" y1="969.75" x2="953.52" y2="-307.47" xlink:href="#linear-gradient"/><linearGradient id="linear-gradient-3" x1="988.81" y1="1079.13" x2="988.81" y2="299.55" gradientUnits="userSpaceOnUse"><stop offset="0" stop-color="#00bbfb"/><stop offset="0.13" stop-color="#008ece"/><stop offset="0.27" stop-color="#0063a4"/><stop offset="0.41" stop-color="#003f80"/><stop offset="0.56" stop-color="#002464"/><stop offset="0.7" stop-color="#001051"/><stop offset="0.85" stop-color="#000445"/><stop offset="1" stop-color="#000041"/></linearGradient><linearGradient id="linear-gradient-4" x1="786.11" y1="1079.13" x2="786.11" y2="299.55" xlink:href="#linear-gradient-3"/><linearGradient id="linear-gradient-5" x1="351.79" y1="367.25" x2="393.28" y2="367.25" gradientUnits="userSpaceOnUse"><stop offset="0" stop-color="#f9f9f9"/><stop offset="1" stop-color="#fbfbfb"/></linearGradient><linearGradient id="linear-gradient-6" x1="155.95" y1="418.73" x2="189.6" y2="418.73" xlink:href="#linear-gradient-5"/><linearGradient id="linear-gradient-7" x1="415.9" y1="420.54" x2="441.35" y2="420.54" xlink:href="#linear-gradient-5"/><linearGradient id="linear-gradient-8" x1="488.05" y1="481.38" x2="513.5" y2="481.38" xlink:href="#linear-gradient-5"/><linearGradient id="linear-gradient-9" x1="67.58" y1="482.37" x2="98.52" y2="482.37" xlink:href="#linear-gradient-5"/><linearGradient id="linear-gradient-10" x1="193.98" y1="338.8" x2="240.11" y2="338.8" xlink:href="#linear-gradient-5"/><linearGradient id="linear-gradient-11" x1="819.57" y1="698.96" x2="1151.53" y2="1030.92" gradientUnits="userSpaceOnUse"><stop offset="0" stop-color="#00bbfb"/><stop offset="0.04" stop-color="#00b5f8"/><stop offset="0.32" stop-color="#0092e8"/><stop offset="0.58" stop-color="#0079dc"/><stop offset="0.81" stop-color="#0069d5"/><stop offset="1" stop-color="#0064d2"/></linearGradient><linearGradient id="linear-gradient-12" x1="883.59" y1="634.95" x2="1215.54" y2="966.9" xlink:href="#linear-gradient-11"/><linearGradient id="linear-gradient-13" x1="901.44" y1="617.09" x2="1233.39" y2="949.05" xlink:href="#linear-gradient-11"/><linearGradient id="linear-gradient-14" x1="870.27" y1="648.26" x2="1202.23" y2="980.21" xlink:href="#linear-gradient-11"/><linearGradient id="linear-gradient-15" x1="866.55" y1="651.99" x2="1198.5" y2="983.94" xlink:href="#linear-gradient-11"/></defs><path d="M960,632.27h0Z" transform="translate(-667.72 -279.06)"/><path class="cls-1" d="M980.43,449.17a39.14,39.14,0,0,0-41.15,0,7.29,7.29,0,0,0-3.62,4.53c-2.36,9.13-2.78,13.85-2.68,19.79a10.22,10.22,0,0,0,7.54,9.67l.74.21a70.27,70.27,0,0,0,37.19,0l.75-.21a10.23,10.23,0,0,0,7.53-9.67c.1-5.94-.32-10.66-2.68-19.79A7.33,7.33,0,0,0,980.43,449.17Z" transform="translate(-667.72 -279.06)"/><path class="cls-2" d="M960,279.06,667.72,800.94H797.05c18.36-.2,32.21-15.63,32.37-34a48.2,48.2,0,0,1,.52-6.61,46.5,46.5,0,0,1,64.92-35.5,25.54,25.54,0,0,1,18.43-10.39A28.56,28.56,0,0,1,933.23,671a28.4,28.4,0,0,1-1.77-12.47,29.09,29.09,0,0,1,24.93-26c-1.42-5.25-4.52-6.87-4.52-6.87h16.26s-3.09,1.62-4.52,6.84A28.55,28.55,0,0,1,986.77,671a28.56,28.56,0,0,1,19.94,43.44,25.54,25.54,0,0,1,18.43,10.39,46.5,46.5,0,0,1,64.92,35.5,48.33,48.33,0,0,1,.52,6.61c.16,18.36,14,33.79,32.37,34h129.33ZM937.69,597.69c-.53-1.47-1.12-3.47-1.74-5.83l-25.57,6.85c1.16-27.59,9.72-46.45,15.46-56.15,14.38,22.09,17.29,49.85,17.83,62.14A13.3,13.3,0,0,1,937.69,597.69Zm34.95,23.8H947.36v-6.24a4.74,4.74,0,0,1,1.64-3.58l6-5.2h-4.78a13.43,13.43,0,0,1-2.54-.27c-.39-12.3-3.25-45.27-21.31-69.78-3.64-29.37-5.71-61.16-2.57-77.51,5.31-27.58,33.37-76.72,36-81.23a.21.21,0,0,1,.38,0c2.61,4.51,30.67,53.65,36,81.23,3.14,16.35,1.07,48.14-2.57,77.51-18.06,24.51-20.92,57.48-21.31,69.78a13.43,13.43,0,0,1-2.54.27H965l6,5.2a4.74,4.74,0,0,1,1.64,3.58Zm11.41-29.63c-.62,2.36-1.21,4.36-1.74,5.83a13.3,13.3,0,0,1-6,7c.54-12.29,3.45-40.05,17.83-62.14,5.73,9.7,14.3,28.56,15.46,56.15Z" transform="translate(-667.72 -279.06)"/><path class="cls-3" d="M960,279.06l-10.84,19.36a379.06,379.06,0,0,1,27,109.17c8.3,16.71,17.25,36.94,20,51.32,3.14,16.35,1.07,48.14-2.57,77.51-18.06,24.51-20.92,57.48-21.31,69.78a13.43,13.43,0,0,1-2.54.27H965l6,5.2a4.74,4.74,0,0,1,1.64,3.58v6.24H947.36v-6.24a4.74,4.74,0,0,1,1.64-3.58l6-5.2h-4.78a13.43,13.43,0,0,1-2.54-.27c-.09-2.86-.33-6.88-.84-11.61q-1.64,3.79-3.34,7.53c.06.92.1,1.78.14,2.58-.36-.21-.68-.46-1-.7a382.4,382.4,0,0,1-92.84,124.85,45.75,45.75,0,0,1,16.78-7.11,46.55,46.55,0,0,1,28.27,3.09,25.54,25.54,0,0,1,18.43-10.39A28.56,28.56,0,0,1,933.23,671a28.4,28.4,0,0,1-1.77-12.47,29.09,29.09,0,0,1,24.93-26c-1.42-5.25-4.52-6.87-4.52-6.87h16.26s-3.09,1.62-4.52,6.84A28.55,28.55,0,0,1,986.77,671a28.62,28.62,0,0,1,24.32,28.28,29.31,29.31,0,0,1-.28,3.89,578.15,578.15,0,0,0,117-124.48Zm24,312.8c-.62,2.36-1.21,4.36-1.74,5.83a13.3,13.3,0,0,1-6,7c.54-12.29,3.45-40.05,17.83-62.14,5.73,9.7,14.3,28.56,15.46,56.15Z" transform="translate(-667.72 -279.06)"/><path class="cls-4" d="M795.21,800.94h1.84c18.36-.2,32.21-15.63,32.37-34a48.2,48.2,0,0,1,.52-6.61,46.27,46.27,0,0,1,11.82-24.53,380.79,380.79,0,0,1-111.31,65.14Z" transform="translate(-667.72 -279.06)"/><polygon class="cls-5" points="372.53 346.51 376.2 363.58 393.28 367.25 376.2 370.93 372.53 388 368.86 370.93 351.79 367.25 368.86 363.58 372.53 346.51"/><polygon class="cls-6" points="172.77 401.91 175.75 415.76 189.6 418.73 175.75 421.71 172.77 435.56 169.79 421.71 155.95 418.73 169.79 415.76 172.77 401.91"/><polygon class="cls-7" points="428.63 407.81 430.88 418.29 441.35 420.54 430.88 422.79 428.63 433.26 426.37 422.79 415.9 420.54 426.37 418.29 428.63 407.81"/><polygon class="cls-8" points="500.78 468.66 503.03 479.13 513.5 481.38 503.03 483.63 500.78 494.1 498.53 483.63 488.06 481.38 498.53 479.13 500.78 468.66"/><polygon class="cls-9" points="83.05 466.89 85.79 479.63 98.52 482.37 85.79 485.1 83.05 497.84 80.31 485.1 67.58 482.37 80.31 479.63 83.05 466.89"/><polygon class="cls-10" points="217.05 315.73 221.13 334.72 240.11 338.8 221.13 342.88 217.05 361.87 212.97 342.88 193.98 338.8 212.97 334.72 217.05 315.73"/><path class="cls-11" d="M885.93,748.24a27.34,27.34,0,0,0-26.14,19.33,35.84,35.84,0,0,1,52.94,2.62A27.34,27.34,0,0,0,885.93,748.24Z" transform="translate(-667.72 -279.06)"/><path class="cls-12" d="M1037.22,748.24a27.31,27.31,0,0,0-25.9,18.73,24.54,24.54,0,0,0-33.75,13.63,32.37,32.37,0,0,1,47.59,5.18,24.63,24.63,0,0,0-13.57-18.66,35.79,35.79,0,0,1,52.43,3.07A27.33,27.33,0,0,0,1037.22,748.24Z" transform="translate(-667.72 -279.06)"/><path class="cls-13" d="M970.46,683.3a32.44,32.44,0,0,1,12.62,24.47,25,25,0,0,0-7.24-30.41,24,24,0,0,0-28.88-.31A31.33,31.33,0,0,1,970.46,683.3Z" transform="translate(-667.72 -279.06)"/><path class="cls-14" d="M969.93,741.66a32.5,32.5,0,0,1,25.73,9.8A25,25,0,0,0,970,733.65a24,24,0,0,0-21.72,19A31.4,31.4,0,0,1,969.93,741.66Z" transform="translate(-667.72 -279.06)"/><path class="cls-15" d="M936.26,709.67a24.7,24.7,0,0,0-18.45,22.84,32.37,32.37,0,0,1,46.87-9.74A24.7,24.7,0,0,0,936.26,709.67Z" transform="translate(-667.72 -279.06)"/></svg>